<?xml version="1.0" encoding="utf-8"?>
<!-- Generator: Adobe Illustrator 26.3.1, SVG Export Plug-In . SVG Version: 6.00 Build 0)  -->
<svg version="1.1" id="Layer_1" xmlns="http://www.w3.org/2000/svg" xmlns:xlink="http://www.w3.org/1999/xlink" x="0px" y="0px"
	 viewBox="0 0 1000 1000" style="enable-background:new 0 0 1000 1000;" xml:space="preserve">
<g>
	<g>
		<path d="M713,325.83c0-47.42-38.58-86-86-86c-3.16,0-6.29,0.18-9.39,0.51c-28.04-33.43-68.85-52.51-112.61-52.51
			c-45.39,0-86.71,20.6-113.93,53.94c-0.25-0.07-0.49-0.14-0.75-0.19c-5.67-1.16-11.49-1.75-17.32-1.75c-47.42,0-86,38.58-86,86
			c0,43.69,32.76,79.85,75,85.27v66.16c-6.69,1.9-13.28,3.93-19.73,6.11c-5.75,1.95-8.84,8.19-6.9,13.94
			c1.95,5.75,8.19,8.85,13.94,6.9c45.26-15.3,97.19-23.39,150.19-23.39c53.75,0,106.33,8.31,152.04,24.02
			c1.18,0.41,2.39,0.6,3.58,0.6c4.57,0,8.83-2.87,10.4-7.43c1.98-5.75-1.08-12-6.83-13.98c-7.72-2.65-15.63-5.08-23.69-7.33v-65.27
			C678.68,407.39,713,370.55,713,325.83z M499.5,458.83c-39.74,0-78.96,4.4-115.5,12.8v-60.5c14.89-1.88,28.9-7.6,41.01-16.81
			c4.84-3.68,5.77-10.58,2.1-15.41c-3.68-4.83-10.58-5.77-15.41-2.1c-11.2,8.52-24.58,13.02-38.7,13.02c-35.29,0-64-28.71-64-64
			s28.71-64,64-64c1.41,0,2.81,0.06,4.21,0.15c-6.53,11.49-11.59,24.02-14.9,37.36c-1.46,5.9,2.13,11.86,8.03,13.32
			c0.89,0.22,1.78,0.33,2.66,0.33c4.94,0,9.43-3.35,10.67-8.36c13.84-55.82,63.73-94.81,121.33-94.81
			c33.61,0,65.18,13.24,88.54,36.75c-20.24,8.53-36.86,24.68-45.78,45.77c-2.37,5.6,0.25,12.05,5.85,14.42
			c5.6,2.37,12.05-0.25,14.42-5.85c10.04-23.75,33.19-39.09,58.98-39.09c35.29,0,64,28.71,64,64c0,32.58-24.47,59.53-56,63.48
			v-29.48c0-6.08-4.92-11-11-11s-11,4.92-11,11v111.33C577.03,463.05,538.54,458.83,499.5,458.83z"/>
		<path d="M625,523.33c-6.08,0-11,4.92-11,11c0,63.14-51.36,114.5-114.5,114.5S385,597.46,385,534.33c0-6.08-4.92-11-11-11
			s-11,4.92-11,11c0,75.27,61.23,136.5,136.5,136.5c75.27,0,136.5-61.23,136.5-136.5C636,528.25,631.08,523.33,625,523.33z"/>
		<path d="M617.42,661.66c-29.02,21.71-71.82,34.17-117.42,34.17c-42.88,0-83.99-11.25-112.79-30.87
			c-5.02-3.42-11.86-2.12-15.28,2.9c-3.42,5.02-2.12,11.86,2.9,15.28c20.18,13.74,44.74,23.68,71.78,29.31
			c-31.05,17.32-52.88,49.52-55.37,87.16c-0.36,5.49,3.38,10.4,8.77,11.5c3.48,0.71,7.17,1.06,11.02,1.06
			c18.75,0,41.27-8.25,61.36-22.88c10.67-7.77,19.91-16.77,27.1-26.27c7.18,9.5,16.43,18.5,27.1,26.27
			c23.61,17.2,50.86,25.66,71.11,22.07c5.52-0.98,9.42-5.94,9.06-11.54c-2.41-37.57-24.06-69.73-54.93-87.13
			c30.25-6.14,57.61-17.59,78.76-33.42c4.86-3.64,5.86-10.53,2.22-15.4C629.17,659.01,622.28,658.02,617.42,661.66z M583.34,789.98
			c-13.19-1.25-29.3-7.92-43.79-18.48c-13.67-9.96-24.37-22.07-30.13-34.09c-1.83-3.82-5.69-6.25-9.92-6.25s-8.09,2.43-9.92,6.25
			c-5.75,12.02-16.45,24.13-30.13,34.09c-14.96,10.9-31.47,17.61-44.81,18.58c7.83-39.62,42.96-69.26,84.36-69.26
			C540.39,720.83,575.47,750.41,583.34,789.98z"/>
	</g>
	<g>
		<ellipse cx="450.5" cy="547.83" rx="15" ry="34.5"/>
	</g>
	<g>
		<ellipse cx="542.5" cy="547.83" rx="15" ry="34.5"/>
	</g>
</g>
</svg>
